<svg xmlns="http://www.w3.org/2000/svg" width="808" height="808" preserveAspectRatio="xMidYMid meet" version="1.0" viewBox="0 0 606 606"><metadata>Created by Funasitien DreamCloud</metadata><g fill="#000" stroke="none"><path d="M3585 5183 c-362 -47 -670 -192 -917 -431 l-77 -75 -63 26 c-92 36 -236 67 -362 77 -626 52 -1211 -341 -1415 -948 -38 -113 -57 -219 -66 -369 l-7 -112 -55 -42 c-135 -104 -298 -311 -374 -474 -132 -281 -166 -613 -93 -910 118 -480 513 -875 993 -994 180 -45 183 -45 1458 -25 l1203 18 69 120 c224 393 1222 2346 1350 2644 l53 124 -7 116 c-9 148 -16 181 -65 293 -256 596 -829 975 -1462 968 -73 -1 -146 -4 -163 -6z m432 -448 c473 -74 777 -394 800 -841 l6 -111 -67 -138 c-71 -148 -226 -448 -663 -1283 -150 -288 -329 -635 -397 -771 l-124 -247 -1064 -11 c-595 -6 -1097 -6 -1140 -2 -225 25 -464 158 -610 340 -71 88 -159 264 -185 369 -22 91 -25 315 -4 400 59 249 212 470 406 587 77 47 101 66 128 99 21 27 22 38 22 244 0 209 1 217 29 300 89 267 253 461 491 580 125 62 229 90 366 97 191 10 329 -23 514 -122 160 -86 202 -77 310 66 189 249 458 411 755 454 109 16 285 12 427 -10z" transform="translate(0.000000,606.000000) scale(0.100000,-0.100000)"/><path d="M4823 2348 l-252 -493 237 -467 237 -468 277 0 278 0 -238 478 -238 477 111 215 c60 119 172 336 247 483 l137 267 -272 0 -272 0 -252 -492z" transform="translate(0.000000,606.000000) scale(0.100000,-0.100000)"/></g></svg>